<svg width="50" height="51" viewBox="0 0 50 51" fill="none" xmlns="http://www.w3.org/2000/svg">
<mask id="mask0_2640_160" style="mask-type:alpha" maskUnits="userSpaceOnUse" x="0" y="0" width="50" height="51">
<rect y="0.5" width="50" height="50" fill="#D9D9D9"/>
</mask>
<g mask="url(#mask0_2640_160)">
<path d="M22.9165 35.9167H27.0832V33.8333H29.1665C29.7568 33.8333 30.2516 33.6337 30.6509 33.2344C31.0502 32.8351 31.2498 32.3403 31.2498 31.75V25.5C31.2498 24.9097 31.0502 24.4149 30.6509 24.0156C30.2516 23.6163 29.7568 23.4167 29.1665 23.4167H22.9165V21.3333H31.2498V17.1667H27.0832V15.0833H22.9165V17.1667H20.8332C20.2429 17.1667 19.7481 17.3663 19.3488 17.7656C18.9495 18.1649 18.7498 18.6597 18.7498 19.25V25.5C18.7498 26.0903 18.9495 26.5851 19.3488 26.9844C19.7481 27.3837 20.2429 27.5833 20.8332 27.5833H27.0832V29.6667H18.7498V33.8333H22.9165V35.9167ZM4.1665 42.1667V8.83334H45.8332V42.1667H4.1665ZM8.33317 38H41.6665V13H8.33317V38Z" fill="white"/>
</g>
</svg>
