<svg width="50" height="50" viewBox="0 0 50 50" fill="none" xmlns="http://www.w3.org/2000/svg">
<mask id="mask0_2640_155" style="mask-type:alpha" maskUnits="userSpaceOnUse" x="0" y="0" width="50" height="50">
<rect width="50" height="50" fill="#D9D9D9"/>
</mask>
<g mask="url(#mask0_2640_155)">
<path d="M23.1248 39.5834H26.7707V36.9792C28.5068 36.6667 29.9998 35.9896 31.2498 34.9479C32.4998 33.9063 33.1248 32.3611 33.1248 30.3125C33.1248 28.8542 32.7082 27.5174 31.8748 26.3021C31.0415 25.0868 29.3748 24.0278 26.8748 23.125C24.7915 22.4306 23.3505 21.8229 22.5519 21.3021C21.7533 20.7813 21.354 20.0695 21.354 19.1667C21.354 18.2639 21.6752 17.5521 22.3175 17.0313C22.9599 16.5104 23.8887 16.25 25.104 16.25C26.2151 16.25 27.0832 16.5191 27.7082 17.0573C28.3332 17.5955 28.7846 18.2639 29.0623 19.0625L32.3957 17.7084C32.0137 16.4931 31.3106 15.434 30.2863 14.5313C29.262 13.6285 28.1248 13.125 26.8748 13.0209V10.4167H23.229V13.0209C21.4929 13.4028 20.1387 14.1667 19.1665 15.3125C18.1943 16.4584 17.7082 17.7431 17.7082 19.1667C17.7082 20.7986 18.1856 22.1181 19.1405 23.125C20.0953 24.132 21.5971 25 23.6457 25.7292C25.8332 26.5278 27.3523 27.2396 28.203 27.8646C29.0537 28.4896 29.479 29.3056 29.479 30.3125C29.479 31.4584 29.071 32.3004 28.255 32.8386C27.4391 33.3768 26.4582 33.6459 25.3123 33.6459C24.1665 33.6459 23.1509 33.29 22.2655 32.5781C21.38 31.8663 20.729 30.7986 20.3123 29.375L16.8748 30.7292C17.3609 32.3959 18.1162 33.7413 19.1405 34.7656C20.1648 35.79 21.4929 36.4931 23.1248 36.875V39.5834ZM24.9998 45.8334C22.1179 45.8334 19.4096 45.2865 16.8748 44.1927C14.3401 43.099 12.1353 41.6146 10.2603 39.7396C8.38525 37.8646 6.90088 35.6597 5.80713 33.125C4.71338 30.5903 4.1665 27.882 4.1665 25C4.1665 22.1181 4.71338 19.4097 5.80713 16.875C6.90088 14.3403 8.38525 12.1354 10.2603 10.2604C12.1353 8.38544 14.3401 6.90106 16.8748 5.80731C19.4096 4.71356 22.1179 4.16669 24.9998 4.16669C27.8818 4.16669 30.5901 4.71356 33.1248 5.80731C35.6596 6.90106 37.8644 8.38544 39.7394 10.2604C41.6144 12.1354 43.0988 14.3403 44.1925 16.875C45.2863 19.4097 45.8332 22.1181 45.8332 25C45.8332 27.882 45.2863 30.5903 44.1925 33.125C43.0988 35.6597 41.6144 37.8646 39.7394 39.7396C37.8644 41.6146 35.6596 43.099 33.1248 44.1927C30.5901 45.2865 27.8818 45.8334 24.9998 45.8334ZM24.9998 41.6667C29.6526 41.6667 33.5936 40.0521 36.8228 36.8229C40.0519 33.5938 41.6665 29.6528 41.6665 25C41.6665 20.3472 40.0519 16.4063 36.8228 13.1771C33.5936 9.94794 29.6526 8.33335 24.9998 8.33335C20.3471 8.33335 16.4061 9.94794 13.1769 13.1771C9.94775 16.4063 8.33317 20.3472 8.33317 25C8.33317 29.6528 9.94775 33.5938 13.1769 36.8229C16.4061 40.0521 20.3471 41.6667 24.9998 41.6667Z" fill="white"/>
</g>
</svg>
