<svg width="220" height="78" viewBox="0 0 220 78" fill="#FFFFFF" xmlns="http://www.w3.org/2000/svg">
<mask id="mask0_2655_1808" style="mask-type:alpha" maskUnits="userSpaceOnUse" x="25" y="14" width="51" height="50">
<rect x="25.5" y="14" width="50" height="50" fill="#FFFFFF"/>
</mask>
<g mask="url(#mask0_2655_1808)">
<path d="M50.6179 59.5929C47.7708 59.5929 45.08 59.046 42.5455 57.9523C40.0109 56.8587 37.7975 55.3657 35.9052 53.4734C34.013 51.5812 32.52 49.3678 31.4263 46.8332C30.3326 44.2986 29.7858 41.6078 29.7858 38.7607C29.7858 35.879 30.3326 33.1795 31.4263 30.6622C32.52 28.145 34.013 25.9403 35.9052 24.048C37.7975 22.1558 40.0109 20.6628 42.5455 19.5691C45.08 18.4754 47.7708 17.9286 50.6179 17.9286V22.095C46.0001 22.095 42.0681 23.7182 38.8217 26.9645C35.5754 30.2109 33.9522 34.1429 33.9522 38.7607C33.9522 43.3785 35.5754 47.3106 38.8217 50.5569C42.0681 53.8033 46.0001 55.4264 50.6179 55.4264C55.2357 55.4264 59.1678 53.8033 62.4141 50.5569C65.6605 47.3106 67.2836 43.3785 67.2836 38.7607H71.4501C71.4501 41.6078 70.9032 44.2986 69.8095 46.8332C68.7158 49.3678 67.2229 51.5812 65.3306 53.4734C63.4384 55.3657 61.2336 56.8587 58.7164 57.9523C56.1992 59.046 53.4997 59.5929 50.6179 59.5929Z" fill="#FFFFFF"/>
<path d="M59.2379 47.3807H55.7833V35.1904C55.7833 34.9523 55.735 34.7301 55.6384 34.5237C55.5498 34.3174 55.425 34.1388 55.2639 33.988C55.1109 33.8293 54.9297 33.7063 54.7203 33.619C54.511 33.5317 54.2855 33.488 54.0439 33.488C53.8023 33.488 53.5769 33.5317 53.3675 33.619C53.1581 33.7063 52.9729 33.8293 52.8118 33.988C52.6588 34.1388 52.5381 34.3174 52.4495 34.5237C52.3609 34.7301 52.3166 34.9523 52.3166 35.1904V47.3807H48.8499V35.1904C48.8499 34.9523 48.8056 34.7301 48.717 34.5237C48.6285 34.3174 48.5036 34.1388 48.3426 33.988C48.1896 33.8293 48.0084 33.7063 47.799 33.619C47.5897 33.5317 47.3642 33.488 47.1226 33.488C46.881 33.488 46.6555 33.5317 46.4462 33.619C46.2368 33.7063 46.0516 33.8293 45.8905 33.988C45.7375 34.1388 45.6167 34.3174 45.5282 34.5237C45.4396 34.7301 45.3953 34.9523 45.3953 35.1904V47.3807H41.9286V35.1904C41.9286 34.4841 42.0615 33.8214 42.3272 33.2023C42.601 32.5754 42.9714 32.0317 43.4385 31.5714C43.9136 31.1031 44.4652 30.7381 45.0933 30.4762C45.7295 30.2063 46.4059 30.0714 47.1226 30.0714C47.7668 30.0714 48.3869 30.1865 48.9828 30.4166C49.5787 30.6389 50.1142 30.9643 50.5893 31.3928C51.0644 30.9643 51.5959 30.6389 52.1837 30.4166C52.7796 30.1865 53.3997 30.0714 54.0439 30.0714C54.7606 30.0714 55.433 30.2063 56.0611 30.4762C56.6973 30.7381 57.2489 31.1031 57.716 31.5714C58.1911 32.0317 58.5615 32.5754 58.8272 33.2023C59.101 33.8214 59.2379 34.4841 59.2379 35.1904V47.3807Z" fill="#FFFFFF"/>
</g>
<path d="M88.7593 29.7266H91.8599L96.4253 42.7759L100.991 29.7266H104.091L97.6704 47.5H95.1802L88.7593 29.7266ZM87.0869 29.7266H90.1753L90.7368 42.4463V47.5H87.0869V29.7266ZM102.675 29.7266H105.776V47.5H102.114V42.4463L102.675 29.7266ZM126.086 38.1982V39.0405C126.086 40.3914 125.903 41.604 125.537 42.6782C125.17 43.7524 124.654 44.668 123.986 45.4248C123.319 46.1735 122.521 46.7472 121.594 47.146C120.674 47.5448 119.653 47.7441 118.53 47.7441C117.415 47.7441 116.394 47.5448 115.466 47.146C114.546 46.7472 113.749 46.1735 113.073 45.4248C112.398 44.668 111.873 43.7524 111.499 42.6782C111.132 41.604 110.949 40.3914 110.949 39.0405V38.1982C110.949 36.8392 111.132 35.6266 111.499 34.5605C111.865 33.4863 112.382 32.5708 113.049 31.814C113.724 31.0571 114.522 30.4793 115.441 30.0806C116.369 29.6818 117.39 29.4824 118.505 29.4824C119.628 29.4824 120.65 29.6818 121.569 30.0806C122.497 30.4793 123.295 31.0571 123.962 31.814C124.637 32.5708 125.158 33.4863 125.524 34.5605C125.899 35.6266 126.086 36.8392 126.086 38.1982ZM122.387 39.0405V38.1738C122.387 37.2298 122.302 36.3997 122.131 35.6836C121.96 34.9674 121.708 34.3652 121.374 33.877C121.04 33.3887 120.633 33.0225 120.153 32.7783C119.673 32.526 119.124 32.3999 118.505 32.3999C117.887 32.3999 117.338 32.526 116.857 32.7783C116.385 33.0225 115.983 33.3887 115.649 33.877C115.323 34.3652 115.075 34.9674 114.904 35.6836C114.733 36.3997 114.648 37.2298 114.648 38.1738V39.0405C114.648 39.9764 114.733 40.8065 114.904 41.5308C115.075 42.2469 115.327 42.8532 115.661 43.3496C115.995 43.8379 116.402 44.2082 116.882 44.4604C117.362 44.7127 117.911 44.8389 118.53 44.8389C119.148 44.8389 119.698 44.7127 120.178 44.4604C120.658 44.2082 121.061 43.8379 121.386 43.3496C121.712 42.8532 121.96 42.2469 122.131 41.5308C122.302 40.8065 122.387 39.9764 122.387 39.0405ZM145.688 29.7266V47.5H142.026L134.885 35.5859V47.5H131.223V29.7266H134.885L142.038 41.6528V29.7266H145.688ZM156.831 47.5H152.961L152.985 44.6436H156.831C157.791 44.6436 158.601 44.4279 159.26 43.9966C159.919 43.5571 160.415 42.9183 160.749 42.0801C161.091 41.2419 161.262 40.2287 161.262 39.0405V38.1738C161.262 37.2624 161.164 36.4608 160.969 35.769C160.782 35.0773 160.501 34.4954 160.126 34.0234C159.752 33.5514 159.292 33.1974 158.747 32.9614C158.202 32.7173 157.575 32.5952 156.867 32.5952H152.888V29.7266H156.867C158.055 29.7266 159.142 29.93 160.126 30.3369C161.119 30.7357 161.978 31.3094 162.702 32.0581C163.426 32.8068 163.984 33.702 164.375 34.7437C164.773 35.7772 164.973 36.9287 164.973 38.1982V39.0405C164.973 40.3019 164.773 41.4535 164.375 42.4951C163.984 43.5368 163.426 44.432 162.702 45.1807C161.986 45.9212 161.127 46.495 160.126 46.9019C159.134 47.3006 158.035 47.5 156.831 47.5ZM155.036 29.7266V47.5H151.374V29.7266H155.036ZM174.028 29.7266V47.5H170.378V29.7266H174.028ZM187.539 29.7266V47.5H183.889V29.7266H187.539ZM193.007 29.7266V32.5952H178.505V29.7266H193.007Z" fill="#FFFFFF"/>
</svg>
