<svg width="50" height="50" viewBox="0 0 50 50" fill="none" xmlns="http://www.w3.org/2000/svg">
<mask id="mask0_2640_165" style="mask-type:alpha" maskUnits="userSpaceOnUse" x="0" y="0" width="50" height="50">
<rect width="50" height="50" fill="#D9D9D9"/>
</mask>
<g mask="url(#mask0_2640_165)">
<path d="M33.3332 22.9167C33.9235 22.9167 34.4182 22.717 34.8175 22.3177C35.2169 21.9184 35.4165 21.4236 35.4165 20.8333C35.4165 20.2431 35.2169 19.7483 34.8175 19.349C34.4182 18.9497 33.9235 18.75 33.3332 18.75C32.7429 18.75 32.2481 18.9497 31.8488 19.349C31.4495 19.7483 31.2498 20.2431 31.2498 20.8333C31.2498 21.4236 31.4495 21.9184 31.8488 22.3177C32.2481 22.717 32.7429 22.9167 33.3332 22.9167ZM16.6665 18.75H27.0832V14.5833H16.6665V18.75ZM9.37484 43.75C8.19428 39.7917 7.03109 35.842 5.88525 31.901C4.73942 27.9601 4.1665 23.9236 4.1665 19.7917C4.1665 16.5972 5.27762 13.8889 7.49984 11.6667C9.72206 9.44445 12.4304 8.33334 15.6248 8.33334H26.0415C27.0485 7.01389 28.2724 5.98959 29.7134 5.26042C31.1544 4.53126 32.7082 4.16667 34.3748 4.16667C35.2429 4.16667 35.9807 4.47049 36.5884 5.07813C37.196 5.68577 37.4998 6.42362 37.4998 7.29167C37.4998 7.50001 37.4738 7.70834 37.4217 7.91667C37.3696 8.12501 37.3089 8.31598 37.2394 8.48959C37.1005 8.87153 36.9703 9.26216 36.8488 9.66146C36.7273 10.0608 36.6318 10.4688 36.5623 10.8854L41.3019 15.625H45.8332V30.1563L39.9478 32.0833L36.4582 43.75H24.9998V39.5833H20.8332V43.75H9.37484ZM12.4998 39.5833H16.6665V35.4167H29.1665V39.5833H33.3332L36.5623 28.8542L41.6665 27.1354V19.7917H39.5832L32.2915 12.5C32.2915 11.8056 32.3349 11.1372 32.4217 10.4948C32.5085 9.85244 32.6387 9.20139 32.8123 8.54167C31.8054 8.81945 30.92 9.29688 30.1561 9.97396C29.3922 10.651 28.8366 11.4931 28.4894 12.5H15.6248C13.6109 12.5 11.8922 13.2118 10.4686 14.6354C9.04498 16.059 8.33317 17.7778 8.33317 19.7917C8.33317 23.1944 8.80192 26.5191 9.73942 29.7656C10.6769 33.0122 11.5971 36.2847 12.4998 39.5833Z" fill="white"/>
</g>
</svg>
