<svg width="55" height="56" viewBox="0 0 55 56" fill="var(--icon-fill)" xmlns="http://www.w3.org/2000/svg">
<mask id="mask0_2736_100" style="mask-type:alpha" maskUnits="userSpaceOnUse" x="0" y="0" width="55" height="56">
<rect y="0.5" width="55" height="55" fill="var(--icon-fill)"/>
</mask>
<g mask="url(#mask0_2736_100)">
<path d="M13.4064 39.6875C15.3543 38.1979 17.5314 37.0234 19.9377 36.164C22.3439 35.3047 24.8647 34.875 27.5002 34.875C30.1356 34.875 32.6564 35.3047 35.0627 36.164C37.4689 37.0234 39.646 38.1979 41.5939 39.6875C42.9307 38.1215 43.9715 36.3455 44.7163 34.3594C45.4611 32.3732 45.8335 30.2535 45.8335 28C45.8335 22.9201 44.0479 18.5946 40.4767 15.0234C36.9055 11.4522 32.58 9.66665 27.5002 9.66665C22.4203 9.66665 18.0948 11.4522 14.5236 15.0234C10.9524 18.5946 9.16683 22.9201 9.16683 28C9.16683 30.2535 9.53922 32.3732 10.284 34.3594C11.0288 36.3455 12.0696 38.1215 13.4064 39.6875ZM27.5002 30.2916C25.2467 30.2916 23.3465 29.5182 21.7996 27.9713C20.2528 26.4245 19.4793 24.5243 19.4793 22.2708C19.4793 20.0173 20.2528 18.1172 21.7996 16.5703C23.3465 15.0234 25.2467 14.25 27.5002 14.25C29.7536 14.25 31.6538 15.0234 33.2007 16.5703C34.7476 18.1172 35.521 20.0173 35.521 22.2708C35.521 24.5243 34.7476 26.4245 33.2007 27.9713C31.6538 29.5182 29.7536 30.2916 27.5002 30.2916ZM27.5002 50.9166C24.33 50.9166 21.3509 50.3151 18.5627 49.112C15.7745 47.9088 13.3491 46.276 11.2866 44.2135C9.22412 42.151 7.59131 39.7257 6.38818 36.9375C5.18506 34.1493 4.5835 31.1701 4.5835 28C4.5835 24.8298 5.18506 21.8507 6.38818 19.0625C7.59131 16.2743 9.22412 13.8489 11.2866 11.7864C13.3491 9.72394 15.7745 8.09113 18.5627 6.888C21.3509 5.68488 24.33 5.08331 27.5002 5.08331C30.6703 5.08331 33.6495 5.68488 36.4377 6.888C39.2259 8.09113 41.6512 9.72394 43.7137 11.7864C45.7762 13.8489 47.409 16.2743 48.6121 19.0625C49.8153 21.8507 50.4168 24.8298 50.4168 28C50.4168 31.1701 49.8153 34.1493 48.6121 36.9375C47.409 39.7257 45.7762 42.151 43.7137 44.2135C41.6512 46.276 39.2259 47.9088 36.4377 49.112C33.6495 50.3151 30.6703 50.9166 27.5002 50.9166ZM27.5002 46.3333C29.5245 46.3333 31.4342 46.0373 33.2293 45.4453C35.0245 44.8533 36.6668 44.0034 38.1564 42.8958C36.6668 41.7882 35.0245 40.9383 33.2293 40.3463C31.4342 39.7543 29.5245 39.4583 27.5002 39.4583C25.4759 39.4583 23.5661 39.7543 21.771 40.3463C19.9759 40.9383 18.3335 41.7882 16.8439 42.8958C18.3335 44.0034 19.9759 44.8533 21.771 45.4453C23.5661 46.0373 25.4759 46.3333 27.5002 46.3333ZM27.5002 25.7083C28.4932 25.7083 29.3144 25.3837 29.9637 24.7344C30.613 24.085 30.9377 23.2639 30.9377 22.2708C30.9377 21.2778 30.613 20.4566 29.9637 19.8073C29.3144 19.158 28.4932 18.8333 27.5002 18.8333C26.5071 18.8333 25.6859 19.158 25.0366 19.8073C24.3873 20.4566 24.0627 21.2778 24.0627 22.2708C24.0627 23.2639 24.3873 24.085 25.0366 24.7344C25.6859 25.3837 26.5071 25.7083 27.5002 25.7083Z" fill="var(--icon-fill)"/>
</g>
</svg>
